<?xml version="1.0" encoding="UTF-8"?>
<svg width="80px" height="80px" viewBox="0 0 80 80" version="1.1" xmlns="http://www.w3.org/2000/svg" xmlns:xlink="http://www.w3.org/1999/xlink">
    <title>facebook</title>
    <defs>
        <polygon id="path-1" points="0.333333333 0 38.3333333 0 38.3333333 80 0.333333333 80"></polygon>
    </defs>
    <g id="facebook" stroke="none" stroke-width="1" fill="none" fill-rule="evenodd">
        <g id="Group-7" transform="translate(21.000000, 0.000000)">
            <mask id="mask-2" fill="white">
                <use xlink:href="#path-1"></use>
            </mask>
            <g id="Clip-6"></g>
            <path d="M8.70587647,40.3150704 L8.70587647,78.9934477 C8.70587647,79.5483061 9.16769192,80 9.73498375,80 L24.4218555,80 C24.9891473,80 25.4538135,79.5483061 25.4538135,78.9934477 L25.4538135,39.6849296 L36.0983746,39.6849296 C36.6343086,39.6849296 37.0790198,39.283424 37.1246312,38.7620243 L38.148037,26.9176077 C38.1993498,26.3292904 37.7261315,25.8274083 37.1217804,25.8274083 L25.4538135,25.8274083 L25.4538135,17.4236721 C25.4538135,15.4551791 27.0844211,13.8575213 29.0970243,13.8575213 L37.3042261,13.8575213 C37.8715179,13.8575213 38.3333333,13.4086156 38.3333333,12.8481807 L38.3333333,1.00655235 C38.3333333,0.448905618 37.8715179,0 37.3042261,0 L23.4383596,0 C15.3024256,0 8.70587647,6.44918444 8.70587647,14.4068033 L8.70587647,25.8274083 L1.36244061,25.8274083 C0.795148787,25.8274083 0.333333333,26.2791022 0.333333333,26.8339607 L0.333333333,38.6783772 C0.333333333,39.2332357 0.795148787,39.6849296 1.36244061,39.6849296 L8.70587647,39.6849296 L8.70587647,40.3150704 Z" id="Fill-5" fill="#000000" mask="url(#mask-2)"></path>
        </g>
    </g>
</svg>