<?xml version="1.0" encoding="UTF-8"?>
<svg width="80px" height="80px" viewBox="0 0 80 80" version="1.1" xmlns="http://www.w3.org/2000/svg" xmlns:xlink="http://www.w3.org/1999/xlink">
    <title>instagram</title>
    <defs>
        <polygon id="path-1" points="1.76643568 2.63167184 81.1132457 2.63167184 81.1132457 81.9753086 1.76643568 81.9753086"></polygon>
    </defs>
    <g id="instagram" stroke="none" stroke-width="1" fill="none" fill-rule="evenodd">
        <g id="Group-4" transform="translate(-1.500000, -3.000000)">
            <g id="Group-2" transform="translate(0.000000, 0.512346)">
                <path d="M62.4453524,16.7980629 C59.8750299,16.7980629 57.7939148,18.879178 57.7939148,21.4495006 C57.7939148,24.0171788 59.8750299,26.1009383 62.4453524,26.1009383 C65.015675,26.1009383 67.0967901,24.0171788 67.0967901,21.4495006 C67.0967901,18.879178 65.015675,16.7980629 62.4453524,16.7980629" id="Fill-8" fill="#000000"></path>
                <path d="M41.7656264,54.8184755 C34.8638343,54.8184755 29.2472035,49.204489 29.2472035,42.3026969 C29.2472035,35.4009048 34.8638343,29.784274 41.7656264,29.784274 C48.6674186,29.784274 54.281405,35.4009048 54.281405,42.3026969 C54.281405,49.204489 48.6674186,54.8184755 41.7656264,54.8184755 M41.7656264,22.7634855 C30.9898399,22.7634855 22.2237706,31.5269104 22.2237706,42.3026969 C22.2237706,53.0784835 30.9898399,61.8419084 41.7656264,61.8419084 C52.5387686,61.8419084 61.3048379,53.0784835 61.3048379,42.3026969 C61.3048379,31.5269104 52.5387686,22.7634855 41.7656264,22.7634855" id="Fill-10" fill="#000000"></path>
                <g id="Group-14">
                    <mask id="mask-2" fill="white">
                        <use xlink:href="#path-1"></use>
                    </mask>
                    <g id="Clip-13"></g>
                    <path d="M25.6000956,10.0940693 C16.5722342,10.0940693 9.2314775,17.434826 9.2314775,26.4626874 L9.2314775,58.1421776 C9.2314775,67.1673947 16.5722342,74.5107957 25.6000956,74.5107957 L57.2769415,74.5107957 C66.3048029,74.5107957 73.6482039,67.1673947 73.6482039,58.1421776 L73.6482039,26.4626874 C73.6482039,17.434826 66.3048029,10.0940693 57.2769415,10.0940693 L25.6000956,10.0940693 Z M57.2769415,81.9758375 L25.6000956,81.9758375 C12.4576025,81.9758375 1.76643568,71.2846706 1.76643568,58.1421776 L1.76643568,26.4626874 C1.76643568,13.3228387 12.4576025,2.63167184 25.6000956,2.63167184 L57.2769415,2.63167184 C70.4194345,2.63167184 81.1132457,13.3228387 81.1132457,26.4626874 L81.1132457,58.1421776 C81.1132457,71.2846706 70.4194345,81.9758375 57.2769415,81.9758375 L57.2769415,81.9758375 Z" id="Fill-12" fill="#000000" mask="url(#mask-2)"></path>
                </g>
            </g>
        </g>
    </g>
</svg>