<?xml version="1.0" encoding="UTF-8"?>
<svg width="80px" height="80px" viewBox="0 0 80 80" version="1.1" xmlns="http://www.w3.org/2000/svg" xmlns:xlink="http://www.w3.org/1999/xlink">
    <!-- Generator: Sketch 58 (84663) - https://sketch.com -->
    <title>correo_80x80</title>
    <desc>Created with Sketch.</desc>
    <g id="correo_80x80" stroke="none" stroke-width="1" fill="none" fill-rule="evenodd" stroke-linecap="round" stroke-linejoin="round">
        <g id="Group-17" transform="translate(13.000000, 13.000000)" stroke-width="2">
            <path d="M46.6174,6.66 C46.6174,4.218 44.6194,2.22 42.1784,2.22 L11.0994,2.22 C8.6574,2.22 6.6594,4.218 6.6594,6.66 L6.6594,26.118 L18.0714,36.629 L23.7054,31.44 C25.3824,29.965 27.8944,29.965 29.5714,31.44 L35.2054,36.629 L46.6174,26.118 L46.6174,6.66 Z" id="Stroke-1" stroke="#000000"></path>
            <path d="M50.426,17.3426 L46.617,14.3666 L46.617,26.1176 L35.205,36.6286 L29.572,31.4406 C27.895,29.9636 25.382,29.9636 23.705,31.4406 L18.072,36.6286 L6.659,26.1176 L6.659,14.3666 L2.851,17.3426 C1.033,19.0236 0,21.3866 0,23.8626 L0,48.8376 C0,50.0846 0.526,51.2116 1.361,52.0196 C2.16,52.7946 3.245,53.2776 4.44,53.2776 L48.837,53.2776 C50.032,53.2776 51.116,52.7946 51.917,52.0196 C52.752,51.2116 53.278,50.0846 53.278,48.8376 L53.278,23.8626 C53.278,21.3866 52.244,19.0236 50.426,17.3426 Z" id="Stroke-3" stroke="#000000"></path>
            <path d="M52.6116,20.5116 C52.1266,19.3216 51.3906,18.2346 50.4256,17.3426 L46.6176,14.3666 L46.6176,26.0536 L52.6116,20.5116 Z" id="Stroke-5" stroke="#000000"></path>
            <path d="M2.8508,17.3426 C1.8868,18.2346 1.1518,19.3216 0.6658,20.5116 L6.6598,26.0536 L6.6598,14.3666 L2.8508,17.3426 Z" id="Stroke-7" stroke="#000000"></path>
            <path d="M29.5715,31.5878 C27.8945,30.1118 25.3825,30.1118 23.7055,31.5878 L1.4945,52.1278 C2.2805,52.8328 3.3055,53.2768 4.4395,53.2768 L48.8375,53.2768 C49.9705,53.2768 50.9975,52.8328 51.7835,52.1278 L29.5715,31.5878 Z" id="Stroke-9" stroke="#000000"></path>
            <path d="M29.7229,1.1639 C27.9589,-0.3881 25.3179,-0.3881 23.5539,1.1639 L22.2019,2.2199 L31.0749,2.2199 L29.7229,1.1639 Z" id="Stroke-11" stroke="#000000"></path>
            <path d="M27.3313,13.284 C27.0693,13.178 26.7903,13.125 26.4993,13.125 C25.2253,13.125 23.9433,14.121 23.3123,15.605 C22.8623,16.664 22.8183,17.79 23.1933,18.694 C23.4553,19.327 23.8963,19.784 24.4693,20.015 C24.7303,20.121 25.0113,20.175 25.3013,20.175 C26.5763,20.175 27.8573,19.178 28.4883,17.693 C28.9383,16.635 28.9813,15.509 28.6073,14.604 C28.3453,13.971 27.9033,13.514 27.3313,13.284 Z" id="Stroke-13" stroke="#FC4646"></path>
            <path d="M32.9172,10.0536 C31.2822,8.5806 29.0532,7.7696 26.6392,7.7696 C21.7422,7.7696 17.7592,11.7526 17.7592,16.6496 C17.7592,21.5456 21.7422,25.5296 26.6392,25.5296 C29.1012,25.5296 31.7482,24.7216 33.5482,23.4226 C33.5572,23.4156 33.5592,23.4036 33.5522,23.3946 C33.5462,23.3856 33.5332,23.3836 33.5242,23.3896 C31.7302,24.6846 29.0932,25.4896 26.6392,25.4896 C21.7652,25.4896 17.7992,21.5236 17.7992,16.6496 C17.7992,11.7756 21.7652,7.8096 26.6392,7.8096 C29.0432,7.8096 31.2632,8.6166 32.8902,10.0826 C34.5592,11.5876 35.4782,13.6956 35.4782,16.0166 C35.4782,17.3216 35.0252,18.6036 34.2032,19.6266 C33.4772,20.5326 32.5502,21.0946 31.7852,21.0946 C31.1052,21.0946 30.5892,20.8896 30.2542,20.4856 C29.8042,19.9416 29.6912,19.0516 29.9202,17.8406 C30.1382,16.6916 30.5492,14.6206 30.7512,13.6176 C30.7532,13.6076 30.7462,13.5966 30.7352,13.5936 C30.7242,13.5916 30.7142,13.5986 30.7122,13.6106 C30.5092,14.6136 30.0982,16.6836 29.8812,17.8326 C29.6492,19.0566 29.7652,19.9576 30.2242,20.5116 C30.5662,20.9246 31.0922,21.1346 31.7852,21.1346 C32.5632,21.1346 33.5002,20.5666 34.2342,19.6526 C35.0632,18.6206 35.5182,17.3296 35.5182,16.0166 C35.5182,13.6836 34.5942,11.5656 32.9172,10.0536 Z" id="Stroke-15" stroke="#FC4646"></path>
        </g>
    </g>
</svg>