<?xml version="1.0" encoding="UTF-8"?>
<svg width="80px" height="80px" viewBox="0 0 80 80" version="1.1" xmlns="http://www.w3.org/2000/svg" xmlns:xlink="http://www.w3.org/1999/xlink">
    <!-- Generator: Sketch 58 (84663) - https://sketch.com -->
    <title>comunidad_80x80</title>
    <desc>Created with Sketch.</desc>
    <g id="comunidad_80x80" stroke="none" stroke-width="1" fill="none" fill-rule="evenodd">
        <g id="d5920705-9dd8-4c2b-8220-657ecf002ca3-Ayuda+-+Comunidad" transform="translate(5.000000, 9.000000)" stroke="#000000">
            <circle id="Oval" stroke-width="2" cx="35.9785263" cy="40.1232632" r="22.5083158"></circle>
            <circle id="Oval" fill="#FC4646" fill-rule="nonzero" cx="35" cy="7.82894737" r="6.90789474"></circle>
            <circle id="Oval" fill="#FC4646" fill-rule="nonzero" cx="13.4703947" cy="35.2302632" r="6.90789474"></circle>
            <circle id="Oval" fill="#FC4646" fill-rule="nonzero" cx="56.5296053" cy="35.2302632" r="6.90789474"></circle>
            <path d="M22.2203947,23.0263158 C22.2203947,19.4655263 25.1069737,16.5789474 28.6677632,16.5789474 L41.3322368,16.5789474 C44.8930263,16.5789474 47.7796053,19.4655263 47.7796053,23.0263158 L47.7796053,27.6315789 C47.7796053,29.1575789 46.5424474,30.3947368 45.0164474,30.3947368 L24.9835526,30.3947368 C23.4575526,30.3947368 22.2203947,29.1575789 22.2203947,27.6315789 L22.2203947,23.0263158 Z" id="Path" fill="#FFFFFF" fill-rule="nonzero"></path>
            <path d="M0.690789474,50.4276316 C0.690789474,46.8668421 3.57736842,43.9802632 7.13815789,43.9802632 L19.8026316,43.9802632 C23.3634211,43.9802632 26.25,46.8668421 26.25,50.4276316 L26.25,55.0328947 C26.25,56.5588947 25.0128421,57.7960526 23.4868421,57.7960526 L3.45394737,57.7960526 C1.92789211,57.7960526 0.690789474,56.5588947 0.690789474,55.0328947 L0.690789474,50.4276316 Z" id="Path" fill="#FFFFFF" fill-rule="nonzero"></path>
            <path d="M43.75,50.4276316 C43.75,46.8668421 46.6365789,43.9802632 50.1973684,43.9802632 L62.8618421,43.9802632 C66.4226316,43.9802632 69.3092105,46.8668421 69.3092105,50.4276316 L69.3092105,55.0328947 C69.3092105,56.5588947 68.0720526,57.7960526 66.5460526,57.7960526 L46.5131579,57.7960526 C44.9871579,57.7960526 43.75,56.5588947 43.75,55.0328947 L43.75,50.4276316 Z" id="Path" fill="#FFFFFF" fill-rule="nonzero"></path>
        </g>
    </g>
</svg>